<?xml version="1.0" standalone="no"?>
<!DOCTYPE svg PUBLIC "-//W3C//DTD SVG 20010904//EN"
 "http://www.w3.org/TR/2001/REC-SVG-20010904/DTD/svg10.dtd">
<svg version="1.0" xmlns="http://www.w3.org/2000/svg"
 width="1024.000000pt" height="1024.000000pt" viewBox="0 0 1024.000000 1024.000000"
 preserveAspectRatio="xMidYMid meet">
<metadata>
Created by potrace 1.14, written by Peter Selinger 2001-2017
</metadata>
<g transform="translate(0.000000,1024.000000) scale(0.100000,-0.100000)"
fill="#000000" stroke="none">
<path d="M0 9650 c0 -523 2 -590 15 -590 20 0 85 -65 85 -85 0 -8 5 -15 10
-15 6 0 10 -6 10 -13 0 -20 33 -47 58 -47 17 0 22 6 22 24 0 25 -16 36 -56 36
-20 0 -24 5 -24 30 0 23 4 30 20 30 15 0 20 -7 20 -25 0 -20 6 -27 30 -31 17
-4 30 -13 30 -21 0 -8 13 -28 30 -43 26 -24 30 -35 30 -77 0 -37 5 -55 20 -68
20 -18 20 -17 20 43 0 34 2 62 5 62 13 0 55 -54 55 -71 0 -23 62 -89 85 -89
10 0 15 -10 15 -30 0 -27 -3 -30 -32 -30 l-32 0 32 -33 c18 -18 32 -39 32 -46
0 -17 64 -81 82 -81 8 0 27 -13 43 -30 16 -16 37 -30 47 -30 23 0 88 -63 88
-85 0 -8 -9 -15 -20 -15 -11 0 -20 -7 -20 -15 0 -20 65 -85 85 -85 12 0 15
-13 15 -60 0 -47 3 -60 15 -60 20 0 85 -65 85 -85 0 -10 10 -15 30 -15 29 0
30 -2 30 -46 0 -39 5 -52 30 -76 17 -15 30 -30 30 -33 0 -3 -13 -5 -30 -5 -27
0 -30 -3 -30 -30 0 -20 5 -30 15 -30 20 0 85 -65 85 -85 0 -12 13 -15 60 -15
l60 0 0 -80 c0 -70 2 -80 18 -80 21 0 82 -59 82 -79 0 -8 14 -27 30 -43 17
-15 30 -37 30 -48 0 -26 63 -90 89 -90 11 0 32 -11 46 -25 23 -24 25 -32 25
-126 l0 -100 35 -34 c19 -19 43 -35 54 -35 17 0 71 -42 71 -55 0 -3 -13 -5
-30 -5 -27 0 -30 -3 -30 -30 0 -20 5 -30 15 -30 9 0 31 -16 50 -35 l35 -34 0
-96 0 -95 30 0 c27 0 30 3 30 30 0 36 2 37 35 5 32 -33 31 -35 -5 -35 -27 0
-30 -3 -30 -30 0 -20 5 -30 15 -30 9 0 31 -16 50 -35 l35 -34 0 -96 0 -95 60
0 60 0 0 -80 c0 -73 2 -80 20 -80 18 0 20 -7 20 -80 l0 -80 30 0 30 0 0 -80
c0 -73 2 -80 20 -80 18 0 20 -7 20 -80 0 -47 4 -80 10 -80 6 0 10 -33 10 -79
0 -74 1 -80 20 -76 19 4 20 -2 20 -81 l0 -84 60 0 60 0 0 -240 c0 -233 1 -240
20 -240 19 0 20 -7 20 -160 l0 -160 30 0 30 0 0 -80 0 -80 30 0 30 0 0 -320
c0 -313 0 -320 20 -320 20 0 20 -7 20 -1200 l0 -1200 30 0 c23 0 30 4 30 20 0
25 9 25 26 3 17 -25 27 -11 28 39 1 37 -2 43 -19 43 -11 1 -24 -4 -28 -10 -4
-5 -6 3 -5 20 2 21 11 34 31 43 16 8 27 21 27 33 0 10 5 19 10 19 6 0 10 -11
10 -25 0 -14 -4 -25 -9 -25 -5 0 -7 -9 -4 -19 6 -22 33 -17 33 5 0 8 5 14 10
14 6 0 10 6 10 14 0 16 98 169 112 174 4 2 8 9 8 16 0 6 9 18 19 26 11 7 18
17 15 22 -3 4 -1 8 5 8 5 0 46 36 90 80 45 44 86 80 91 80 5 0 23 13 38 30 16
16 32 30 36 30 4 0 19 11 34 25 15 14 37 28 50 31 12 4 22 10 22 15 0 5 7 9
15 9 8 0 15 4 15 9 0 5 11 12 24 15 14 3 31 12 38 19 17 16 102 63 151 83 20
9 37 20 37 25 0 5 14 9 30 9 17 0 30 4 30 8 0 5 22 15 50 22 27 7 50 17 50 22
0 4 7 8 16 8 9 0 43 13 77 29 34 16 86 39 115 52 28 12 52 26 52 31 0 4 9 8
20 8 11 0 20 4 20 8 0 5 12 15 28 22 31 16 162 145 162 160 0 6 5 10 10 10 6
0 26 15 45 34 19 19 48 42 64 52 17 10 31 22 31 26 0 4 6 8 13 8 6 0 26 12 42
28 17 15 42 33 58 41 15 8 27 18 27 21 0 4 14 13 31 20 l30 13 -5 91 c-5 96
-20 221 -29 246 -3 8 -9 33 -12 55 -4 22 -11 63 -16 90 -5 28 -14 73 -18 100
-5 28 -12 61 -16 75 -3 14 -11 45 -16 70 -6 25 -20 77 -32 116 -23 75 -42 94
-98 94 -15 0 -31 5 -34 10 -3 6 -15 10 -26 10 -10 0 -19 5 -19 10 0 6 -7 10
-16 10 -8 0 -29 13 -47 30 -18 16 -36 30 -40 30 -11 0 -217 209 -217 221 0 5
-16 26 -35 46 -19 20 -38 45 -41 55 -3 10 -8 18 -12 18 -4 0 -18 18 -32 40
-14 22 -28 40 -32 40 -5 0 -8 6 -8 13 0 7 -9 23 -20 35 -11 12 -20 25 -20 30
0 4 -8 17 -18 28 -9 10 -33 45 -52 77 -19 31 -38 57 -42 57 -4 0 -8 9 -8 20 0
11 -4 20 -8 20 -9 0 -72 130 -72 148 0 7 -4 12 -10 12 -5 0 -10 10 -10 23 0
12 -9 33 -20 47 -11 14 -20 35 -20 48 0 12 -3 22 -8 22 -4 0 -12 15 -19 33 -6
17 -25 73 -43 122 -17 50 -35 100 -41 113 -5 12 -13 32 -18 45 -23 55 -51 145
-51 165 0 12 -4 22 -10 22 -5 0 -10 11 -10 25 0 13 -5 37 -11 52 -6 15 -15 37
-20 48 -4 11 -10 34 -13 50 -2 17 -10 50 -16 75 -13 51 -25 113 -43 215 -16
90 -15 403 2 570 7 72 16 190 19 264 l7 134 106 3 c85 3 109 1 119 -11 7 -8
18 -15 25 -15 7 0 18 -7 25 -15 10 -12 10 -15 0 -15 -7 0 -10 -7 -6 -15 3 -8
1 -15 -5 -15 -6 0 -7 -5 -4 -10 3 -6 -1 -13 -9 -16 -10 -4 -16 -18 -16 -35 0
-20 -5 -29 -16 -29 -18 0 -124 -105 -124 -123 0 -7 -9 -19 -20 -27 -25 -18
-25 -35 -1 -62 11 -11 17 -26 14 -33 -2 -8 7 -21 21 -30 20 -13 26 -26 26 -51
0 -27 4 -34 20 -34 11 0 20 7 20 15 0 8 5 15 10 15 6 0 10 5 10 11 0 6 6 16
13 24 12 11 18 10 40 -10 32 -27 34 -35 7 -35 -12 0 -20 -7 -20 -16 0 -20 106
-124 126 -124 9 0 18 -9 21 -21 4 -16 11 -19 27 -14 11 4 59 11 106 15 128 13
194 26 198 39 2 6 17 18 33 26 27 15 29 14 29 -5 0 -11 -6 -20 -12 -20 -7 -1
-3 -6 10 -14 21 -11 22 -14 7 -26 -9 -7 -14 -19 -11 -26 3 -7 1 -14 -4 -16 -9
-3 -14 -51 -11 -106 0 -19 5 -31 11 -27 6 3 10 1 10 -4 0 -6 6 -11 13 -11 14
0 47 35 47 50 0 5 12 17 28 27 15 10 30 22 35 28 5 7 9 7 15 0 15 -22 36 -8
50 35 8 25 18 54 22 65 29 77 45 334 22 357 -7 7 -12 20 -12 30 0 10 -4 18
-10 18 -5 0 -10 7 -10 15 0 8 -3 15 -8 15 -4 0 -13 13 -20 28 -11 26 -19 36
-72 86 -11 11 -20 32 -20 48 0 15 -4 28 -10 28 -5 0 -10 9 -10 20 0 18 -10 48
-33 97 -5 12 -23 27 -38 34 -16 6 -29 14 -29 18 0 4 -20 13 -45 20 -64 19
-437 21 -485 2 -109 -41 -126 -50 -164 -88 -21 -21 -37 -30 -41 -24 -11 19 -9
324 4 371 29 114 57 190 69 190 6 0 12 11 12 25 0 13 7 30 15 37 40 33 55 54
55 75 0 18 6 23 26 23 34 0 56 23 49 52 -5 19 0 25 24 35 17 6 35 22 40 35 5
14 20 32 34 40 13 9 29 29 36 45 20 50 98 70 124 33 8 -11 16 -18 19 -15 2 3
11 -11 18 -30 8 -19 17 -35 22 -35 4 0 8 -15 8 -33 0 -27 6 -36 38 -52 20 -11
40 -24 43 -29 9 -12 31 3 23 15 -3 6 0 9 7 8 27 -4 69 20 69 41 0 11 7 20 15
20 9 0 18 7 21 15 4 8 15 15 26 15 14 0 19 6 16 22 -3 21 43 78 62 78 11 0 35
41 32 53 -1 4 5 7 13 7 8 0 15 9 15 21 0 11 5 17 10 14 5 -3 10 -2 10 4 0 5 9
13 20 16 11 3 20 13 20 21 0 8 5 12 10 9 6 -3 10 3 10 14 0 12 5 21 10 21 14
0 12 38 -3 43 -17 6 -7 14 23 19 31 4 45 16 53 48 7 27 22 49 80 113 20 23 37
36 37 29 0 -8 15 -12 43 -11 23 0 36 3 29 6 -9 4 -7 10 7 22 12 10 18 21 14
25 -3 3 8 6 25 6 16 0 32 -5 34 -11 2 -7 38 -12 91 -13 48 -1 90 -5 93 -9 4
-4 16 -7 26 -7 10 0 26 -4 36 -10 9 -5 43 -16 74 -25 31 -8 63 -22 72 -30 8
-8 19 -15 25 -15 6 0 11 -4 11 -9 0 -5 14 -11 30 -14 17 -4 30 -13 30 -21 0
-8 10 -16 23 -18 12 -2 26 -12 31 -23 10 -22 89 -75 112 -75 8 0 14 -7 14 -15
0 -8 16 -22 35 -31 19 -9 53 -34 75 -55 22 -21 44 -39 50 -39 5 0 19 -13 32
-30 12 -16 26 -30 31 -30 5 0 17 -8 26 -18 9 -10 24 -21 34 -25 9 -3 17 -13
17 -22 0 -8 6 -15 14 -15 16 0 146 -123 146 -138 0 -6 23 -33 50 -61 55 -56
58 -61 35 -61 -26 0 -29 -29 -6 -49 11 -10 21 -24 21 -30 0 -21 61 -90 250
-281 173 -174 186 -191 208 -251 12 -35 22 -81 22 -101 0 -20 5 -40 10 -43 6
-3 10 -28 10 -54 0 -26 4 -51 9 -56 5 -6 12 -36 15 -67 15 -147 18 -168 27
-168 5 0 9 -18 9 -40 0 -22 4 -48 9 -58 27 -53 36 -86 48 -179 3 -24 9 -43 15
-43 24 0 -11 298 -42 352 -14 25 -13 28 10 28 11 0 20 -3 20 -8 0 -12 77 -32
128 -32 36 0 57 6 78 22 43 33 114 111 114 126 0 6 3 12 8 12 8 0 32 49 32 67
0 7 5 13 10 13 6 0 10 10 10 23 0 69 69 117 169 117 32 0 71 -7 87 -15 38 -18
81 -64 86 -90 3 -18 -3 -20 -62 -21 -119 -3 -166 -14 -203 -48 -18 -17 -36
-39 -40 -49 -6 -16 -3 -15 33 3 61 31 76 27 101 -27 22 -48 34 -91 48 -173 5
-25 15 -67 24 -95 21 -71 37 -142 37 -168 0 -23 -19 -83 -34 -105 -7 -11 -4
-11 12 -1 12 7 31 34 44 59 27 53 46 75 56 65 4 -4 1 -10 -6 -12 -6 -3 -12
-15 -12 -28 0 -13 -4 -27 -10 -30 -6 -3 -10 -15 -10 -26 0 -10 -4 -27 -9 -37
-5 -9 -16 -32 -23 -49 -7 -18 -16 -33 -20 -33 -5 0 -8 -7 -8 -15 0 -9 -9 -25
-20 -37 -11 -12 -20 -28 -20 -35 0 -7 -4 -13 -10 -13 -5 0 -10 -6 -10 -13 0
-7 -8 -22 -17 -33 -20 -22 -35 -48 -67 -109 -12 -22 -29 -49 -38 -59 -10 -11
-18 -24 -18 -29 0 -12 -101 -112 -127 -126 -27 -14 -130 -15 -138 -1 -3 6 -17
10 -31 10 -16 0 -24 6 -24 16 0 27 -30 44 -55 30 -11 -6 -21 -11 -22 -11 -1 0
-4 -12 -8 -28 -6 -24 -4 -27 17 -27 34 0 40 -10 23 -36 -31 -48 -55 -95 -55
-109 0 -8 -4 -15 -10 -15 -5 0 -10 -11 -10 -24 0 -14 -5 -28 -10 -31 -6 -3
-10 -19 -10 -35 0 -16 -4 -32 -10 -35 -6 -3 -10 -19 -10 -35 0 -16 -4 -31 -9
-34 -5 -3 -11 -20 -14 -38 -3 -18 -10 -52 -16 -75 -40 -158 -51 -238 -61 -448
-9 -172 -14 -224 -30 -260 -9 -21 -18 -58 -27 -113 -3 -18 -9 -35 -14 -38 -5
-3 -9 -14 -9 -25 0 -10 -4 -27 -9 -37 -16 -32 -30 -66 -51 -132 -11 -36 -25
-73 -30 -82 -6 -10 -10 -27 -10 -38 0 -11 -4 -20 -8 -20 -4 0 -14 -21 -21 -46
-8 -25 -22 -63 -32 -85 -11 -21 -19 -45 -19 -54 0 -8 -4 -15 -10 -15 -5 0 -10
-6 -10 -14 0 -17 -42 -100 -52 -104 -5 -2 -8 -12 -8 -23 0 -10 -4 -19 -8 -19
-4 0 -16 -14 -26 -32 -24 -40 -175 -188 -192 -188 -7 0 -14 -4 -16 -8 -1 -4
-23 -23 -48 -42 -25 -19 -52 -42 -60 -51 -8 -9 -26 -22 -39 -29 -13 -7 -34
-21 -45 -32 -30 -27 -88 -67 -108 -74 -10 -4 -18 -10 -18 -15 0 -5 -7 -9 -15
-9 -9 0 -29 -13 -45 -30 -16 -16 -34 -30 -40 -30 -16 0 -40 -26 -40 -43 0 -15
-29 -32 -38 -22 -3 3 0 5 7 5 7 0 10 4 6 10 -3 5 -14 1 -25 -10 -14 -14 -18
-28 -13 -54 3 -20 9 -33 14 -30 5 3 9 -2 9 -11 0 -9 4 -13 10 -10 5 3 10 2 10
-4 0 -5 -4 -13 -10 -16 -6 -3 -10 -15 -10 -26 0 -10 -4 -19 -10 -19 -5 0 -10
-18 -10 -41 0 -24 -4 -38 -10 -34 -5 3 -10 -3 -10 -14 0 -10 -4 -21 -9 -23 -5
-1 -11 -14 -13 -28 -2 -17 -11 -27 -28 -30 -20 -5 -25 -11 -23 -32 1 -20 -4
-28 -24 -33 -13 -3 -34 -3 -45 1 -16 5 -19 3 -12 -7 6 -10 3 -10 -11 1 -10 8
-16 10 -12 3 4 -6 3 -13 -3 -15 -6 -2 -12 -13 -15 -26 -4 -21 -2 -22 53 -16
31 4 65 11 74 15 9 5 26 9 37 9 12 0 31 5 44 12 47 24 57 28 72 28 8 0 15 5
15 10 0 6 18 10 40 10 23 0 40 5 40 11 0 8 4 8 14 0 11 -9 20 -9 35 -2 27 15
31 14 31 -9 0 -11 -3 -20 -8 -20 -4 0 -15 -17 -24 -39 -9 -21 -23 -45 -30 -52
-21 -23 -58 -78 -58 -86 0 -4 -14 -22 -30 -40 -17 -18 -30 -36 -30 -41 0 -5
-14 -23 -30 -40 -16 -18 -30 -36 -30 -40 0 -5 -13 -23 -30 -40 -16 -18 -30
-37 -30 -43 0 -7 -8 -19 -18 -28 -9 -9 -30 -33 -46 -54 -15 -21 -43 -54 -62
-72 -19 -19 -34 -38 -34 -42 0 -4 -24 -33 -52 -64 -29 -31 -67 -72 -84 -90
-42 -47 -153 -149 -162 -149 -4 0 -20 -11 -36 -25 -16 -14 -32 -25 -36 -25 -4
0 -20 -11 -36 -25 -16 -14 -35 -25 -41 -25 -7 0 -13 -4 -13 -8 0 -5 -12 -15
-27 -23 -16 -8 -35 -22 -44 -31 -9 -10 -20 -18 -25 -18 -5 0 -25 -14 -44 -30
-19 -16 -41 -30 -47 -30 -7 0 -13 -4 -13 -8 0 -4 -12 -15 -27 -24 -16 -9 -41
-28 -58 -42 -16 -14 -34 -26 -38 -26 -5 0 -22 -13 -37 -30 -15 -16 -33 -30
-38 -30 -16 0 -182 -169 -182 -186 0 -3 -10 -15 -23 -28 -12 -12 -31 -41 -41
-64 -11 -23 -23 -42 -28 -42 -4 0 -8 -13 -8 -30 0 -16 -3 -30 -8 -30 -9 0 -32
-72 -32 -100 0 -11 5 -20 10 -20 6 0 10 9 10 20 0 11 5 20 10 20 6 0 10 14 10
30 0 17 3 30 8 30 8 0 32 49 32 67 0 7 5 13 10 13 6 0 10 9 10 20 0 11 5 20
10 20 6 0 10 8 10 19 0 10 9 21 20 24 16 4 18 2 10 -13 -6 -10 -10 -30 -10
-44 0 -14 -4 -26 -10 -26 -5 0 -10 -7 -10 -15 0 -8 -4 -23 -9 -33 -28 -54 -54
-165 -56 -237 -5 -145 -27 -275 -47 -275 -4 0 -8 -36 -8 -80 l0 -80 900 0
c793 0 900 2 900 15 0 8 4 15 10 15 5 0 14 16 19 36 6 20 19 46 29 58 10 12
25 41 32 66 15 48 31 70 50 70 14 0 40 25 40 39 0 5 10 13 22 17 29 9 78 58
78 78 0 9 6 13 15 10 16 -6 45 17 45 36 0 7 13 25 30 40 16 15 30 34 30 40 0
7 8 20 18 29 10 9 33 46 52 84 18 37 37 67 42 67 4 0 8 9 8 20 0 11 5 20 10
20 6 0 10 7 10 15 0 8 4 23 9 33 5 9 15 37 22 62 7 25 16 49 21 54 4 6 8 22 8
38 0 16 7 31 19 37 10 6 21 22 25 35 3 14 14 32 23 41 14 14 14 20 4 37 -10
17 -10 22 0 29 7 4 16 6 20 4 9 -6 27 34 34 77 3 21 12 44 20 52 8 8 15 24 15
36 0 27 26 77 46 88 10 5 16 23 17 45 1 29 5 37 20 37 12 0 23 11 30 30 6 16
17 30 24 30 7 0 13 4 13 8 0 5 11 22 25 38 14 16 25 33 25 37 0 4 9 17 20 29
10 12 17 25 14 30 -3 5 3 12 15 15 17 4 30 24 36 53 6 28 19 50 31 50 8 0 14
4 14 9 0 5 10 11 23 13 16 2 23 11 25 31 3 21 9 27 27 27 15 0 26 7 30 20 3
11 11 20 16 20 5 0 9 9 9 20 0 11 7 20 15 20 23 0 62 41 69 73 5 20 12 27 31
27 16 0 25 6 25 15 0 20 44 65 64 65 8 0 18 9 21 20 3 11 9 20 13 20 4 0 19
10 34 23 14 12 36 29 49 37 12 8 41 34 65 58 24 23 47 42 51 42 13 1 63 48 63
60 0 6 8 14 18 17 9 4 66 55 125 115 79 79 115 108 132 108 14 0 25 -4 25 -10
0 -5 6 -10 13 -10 7 0 23 -9 35 -20 12 -11 25 -20 29 -20 4 0 24 -14 43 -30
19 -16 41 -30 48 -30 6 0 12 -4 12 -9 0 -5 8 -12 19 -16 10 -3 31 -17 47 -30
16 -14 35 -25 42 -25 6 0 12 -4 12 -8 0 -4 13 -16 30 -25 16 -10 35 -23 42
-30 7 -7 29 -24 48 -37 19 -13 46 -36 60 -50 14 -14 45 -41 70 -60 54 -42 195
-182 231 -230 15 -19 37 -46 49 -60 12 -14 29 -37 38 -53 9 -15 20 -27 24 -27
4 0 8 -9 8 -20 0 -11 4 -20 8 -20 5 0 15 -12 23 -27 8 -16 16 -30 19 -33 12
-12 89 -163 113 -220 8 -19 23 -57 35 -85 11 -27 27 -68 34 -90 7 -22 15 -42
18 -45 6 -5 39 -109 61 -190 6 -25 20 -64 30 -87 11 -24 19 -58 19 -77 0 -19
5 -38 10 -41 6 -3 10 -21 10 -40 0 -19 5 -37 10 -40 6 -3 10 -24 10 -46 0 -21
5 -39 10 -39 6 0 10 -20 10 -44 0 -25 5 -48 10 -51 6 -3 10 -23 10 -44 0 -20
4 -41 9 -46 5 -6 11 -30 14 -55 3 -25 10 -70 16 -100 6 -30 13 -83 17 -118 4
-34 11 -62 15 -62 5 0 9 -31 9 -70 0 -40 4 -70 10 -70 6 0 10 -18 10 -40 l0
-40 650 0 650 0 0 5120 0 5120 -5120 0 -5120 0 0 -590z m3540 -3252 c0 -61 16
-127 35 -140 20 -15 -7 -21 -44 -10 -47 15 -91 57 -91 88 0 12 -4 24 -9 26 -5
2 -11 14 -13 28 -2 20 1 25 19 23 11 -1 27 4 33 12 7 8 21 15 31 15 11 0 19 5
19 10 0 6 5 10 10 10 6 0 10 -27 10 -62z m284 -54 c7 -18 0 -34 -15 -34 -5 0
-9 11 -9 25 0 28 15 34 24 9z m136 -84 c0 -11 -4 -20 -10 -20 -5 0 -10 9 -10
20 0 11 5 20 10 20 6 0 10 -9 10 -20z m-120 -59 c0 -22 -44 -31 -95 -20 -28 6
-29 7 -7 14 12 4 22 11 22 16 0 5 18 9 40 9 33 0 40 -4 40 -19z m3488 -3661
c-7 -11 -16 -20 -20 -20 -11 0 -10 9 5 25 18 21 29 18 15 -5z m-4728 -636 c0
-2 -9 -4 -21 -4 -11 0 -18 4 -14 10 5 8 35 3 35 -6z m-43 -136 c-3 -8 -6 -5
-6 6 -1 11 2 17 5 13 3 -3 4 -12 1 -19z m221 -62 c-7 -8 -15 -12 -17 -11 -5 6
10 25 20 25 5 0 4 -6 -3 -14z m-106 -163 c-5 -10 -11 -25 -14 -33 -4 -11 -7
-10 -17 8 -14 27 -7 42 20 42 16 0 18 -4 11 -17z m-94 -50 c-4 -56 -28 -73
-28 -20 0 41 8 67 22 67 5 0 8 -21 6 -47z m3299 -925 c-3 -7 -5 -2 -5 12 0 14
2 19 5 13 2 -7 2 -19 0 -25z"/>
<path d="M5626 7463 c-12 -12 -5 -23 14 -23 11 0 20 4 20 9 0 11 -26 22 -34
14z"/>
<path d="M1380 7197 c0 -2 14 -16 30 -32 l30 -29 0 32 c0 29 -3 32 -30 32 -16
0 -30 -1 -30 -3z"/>
<path d="M4730 6950 c-14 -4 -41 -9 -60 -9 -75 -3 -149 -42 -174 -92 -59 -117
45 -153 264 -92 73 21 350 48 575 56 33 2 41 6 43 25 3 17 10 22 33 22 16 0
29 -4 29 -10 0 -5 -4 -10 -10 -10 -5 0 -10 -8 -10 -19 0 -16 10 -19 73 -24 39
-4 103 -9 141 -13 55 -6 68 -4 64 6 -5 16 -76 59 -98 60 -8 0 -27 6 -42 14
-15 8 -66 16 -115 19 -78 4 -145 19 -208 47 -11 5 -36 12 -55 16 -51 10 -421
14 -450 4z"/>
<path d="M5005 6630 c-3 -5 -16 -10 -28 -10 -29 0 -86 -21 -120 -43 -14 -9
-40 -17 -58 -17 -22 0 -39 -9 -60 -31 -32 -34 -49 -32 -41 6 5 28 -9 33 -28
10 -6 -8 -19 -14 -28 -13 -35 4 -102 -22 -102 -40 0 -10 -5 -23 -12 -30 -19
-19 -12 -124 12 -173 11 -24 20 -49 20 -56 0 -7 4 -13 9 -13 5 0 12 -8 15 -18
8 -23 49 -49 54 -33 5 14 87 15 113 1 10 -6 19 -7 19 -2 0 5 7 9 15 9 8 0 15
-4 15 -9 0 -4 12 -8 26 -8 14 0 45 -5 69 -11 31 -8 49 -8 63 0 15 8 21 8 24
-1 3 -8 11 -7 28 2 18 9 25 10 28 1 7 -20 42 -13 42 9 0 13 -7 20 -20 20 -13
0 -20 7 -20 20 0 23 3 24 31 8 17 -10 23 -10 26 0 3 7 25 12 58 12 44 0 56 4
65 20 6 11 20 20 31 20 11 0 18 4 14 9 -3 5 -1 12 4 16 12 7 3 35 -11 35 -6 0
-23 -13 -38 -30 -15 -16 -35 -30 -44 -30 -22 0 -20 13 4 30 11 8 20 18 20 23
0 5 10 22 21 39 13 17 22 46 23 69 1 43 16 50 44 22 12 -11 17 -33 17 -67 l0
-51 45 -6 c30 -4 54 -2 72 7 15 8 45 14 68 14 30 0 47 6 66 25 25 25 27 55 4
55 -6 0 -23 12 -37 26 -19 19 -32 24 -50 19 -19 -4 -26 -1 -30 15 -4 14 -14
20 -32 20 -14 0 -33 5 -41 10 -12 8 -11 10 8 10 12 0 22 5 22 10 0 6 -18 10
-40 10 -22 0 -40 5 -40 10 0 6 -9 10 -19 10 -11 0 -23 5 -26 10 -3 6 -18 10
-33 10 -28 0 -96 21 -108 33 -4 3 -15 2 -25 -3 -21 -12 -49 -3 -49 16 0 16
-46 19 -55 4z m-82 -190 c-6 -40 12 -100 28 -100 5 0 9 -9 9 -20 0 -11 5 -20
10 -20 6 0 10 -4 10 -10 0 -5 -9 -10 -21 -10 -16 0 -19 -4 -14 -20 5 -15 2
-20 -10 -20 -13 0 -16 6 -13 25 6 27 -25 55 -62 55 -13 0 -20 7 -20 20 0 16
-7 20 -30 20 -23 0 -30 4 -30 20 0 13 7 20 18 20 10 0 24 9 32 20 8 11 22 20
32 20 10 0 26 9 35 20 26 29 32 25 26 -20z m107 10 c0 -5 -5 -10 -11 -10 -5 0
-7 5 -4 10 3 6 8 10 11 10 2 0 4 -4 4 -10z m150 0 c0 -5 -4 -10 -10 -10 -5 0
-10 5 -10 10 0 6 5 10 10 10 6 0 10 -4 10 -10z m-470 -54 c0 -2 -7 -9 -15 -16
-12 -10 -15 -10 -15 4 0 9 7 16 15 16 8 0 15 -2 15 -4z m-31 -93 c-3 -35 1
-49 14 -57 13 -8 20 -8 26 3 6 9 15 11 27 6 17 -7 17 -8 2 -12 -9 -2 -20 -13
-23 -24 -8 -25 -30 -24 -49 3 -18 26 -22 128 -5 128 6 0 9 -18 8 -47z m441
-48 c0 -8 -9 -15 -20 -15 -11 0 -20 7 -20 15 0 8 9 15 20 15 11 0 20 -7 20
-15z m-260 -5 c0 -5 -13 -10 -30 -10 -16 0 -30 5 -30 10 0 6 14 10 30 10 17 0
30 -4 30 -10z m140 -20 c0 -5 -4 -10 -10 -10 -5 0 -10 5 -10 10 0 6 5 10 10
10 6 0 10 -4 10 -10z"/>
<path d="M6591 6291 c-18 -12 -5 -48 25 -67 13 -9 24 -23 24 -30 0 -8 9 -14
20 -14 13 0 20 -7 20 -20 0 -13 -7 -20 -20 -20 -25 0 -25 -11 -1 -42 13 -16
21 -43 22 -76 2 -46 -1 -54 -27 -77 -16 -14 -32 -25 -37 -25 -14 0 -97 -89
-97 -105 0 -8 -4 -15 -10 -15 -5 0 -10 -9 -10 -20 0 -43 48 -15 97 58 8 12 22
22 29 22 8 0 14 4 14 9 0 11 102 51 129 51 24 0 91 66 91 90 0 11 5 22 10 25
6 3 10 15 10 26 0 10 -4 19 -10 19 -5 0 -10 8 -10 19 0 11 -12 23 -30 31 -16
7 -30 19 -30 26 0 24 -63 93 -115 125 -32 20 -71 24 -94 10z"/>
<path d="M6920 5910 c0 -5 5 -10 10 -10 6 0 10 5 10 10 0 6 -4 10 -10 10 -5 0
-10 -4 -10 -10z"/>
<path d="M6880 5869 c0 -5 5 -7 10 -4 6 3 10 8 10 11 0 2 -4 4 -10 4 -5 0 -10
-5 -10 -11z"/>
<path d="M3825 5527 c-52 -16 -60 -23 -63 -54 -2 -21 -10 -33 -24 -36 -11 -3
-17 -10 -13 -16 5 -10 -7 -15 -27 -12 -11 1 -30 -38 -23 -49 7 -11 -35 -31
-47 -23 -5 2 -8 -2 -8 -11 0 -30 13 -46 36 -46 20 0 24 -5 24 -30 0 -30 1 -30
55 -30 30 0 55 -4 55 -10 0 -5 7 -10 15 -10 8 0 15 -4 15 -10 0 -5 -4 -10 -10
-10 -5 0 -10 -9 -10 -20 0 -13 7 -20 20 -20 12 0 17 5 14 14 -3 8 -1 17 5 21
6 3 14 -1 18 -11 4 -10 0 -20 -10 -26 -21 -11 -11 -38 14 -38 10 0 19 -4 19
-10 0 -6 26 -10 59 -10 33 0 63 5 66 10 3 6 15 10 26 10 10 0 19 5 19 10 0 11
80 14 80 3 1 -5 9 -18 20 -31 l19 -23 26 25 c14 14 25 28 25 31 0 3 -18 5 -40
5 -27 0 -47 7 -60 20 -11 11 -22 20 -25 20 -3 0 -28 23 -56 50 -52 51 -75 59
-108 38 -24 -15 -51 9 -51 46 0 26 30 88 56 113 10 11 14 31 12 67 -2 42 -6
50 -20 48 -10 -2 -18 1 -18 6 0 11 -47 11 -85 -1z"/>
<path d="M4043 5245 c-3 -9 -4 -17 -2 -19 66 -52 149 -84 149 -58 0 11 -49 62
-60 62 -6 0 -10 7 -10 15 0 21 -68 21 -77 0z"/>
<path d="M4386 5239 c-19 -19 -19 -19 37 -19 70 0 68 0 90 -12 22 -11 67 -3
67 13 0 28 -30 39 -102 38 -58 0 -77 -4 -92 -20z"/>
<path d="M4240 5131 c0 -5 11 -11 24 -13 17 -4 23 -1 19 9 -6 14 -43 18 -43 4z"/>
<path d="M4070 4821 c-19 -9 -44 -22 -55 -28 -64 -36 -99 -45 -156 -40 -32 2
-59 0 -59 -4 0 -5 -11 -9 -24 -9 -14 0 -30 -10 -40 -25 -19 -30 -22 -121 -3
-139 34 -35 107 -52 107 -25 0 5 9 4 20 -3 11 -7 20 -19 20 -26 0 -18 25 -42
44 -42 22 0 20 13 -4 30 -11 8 -20 22 -20 32 0 10 -4 18 -8 18 -14 0 -11 38 4
44 23 9 60 -13 61 -36 1 -12 6 -24 11 -27 5 -3 11 -14 15 -23 3 -10 13 -18 22
-18 8 0 15 -5 15 -10 0 -6 9 -20 19 -31 11 -12 21 -30 24 -41 5 -16 2 -19 -13
-15 -17 4 -16 1 6 -29 24 -31 54 -42 97 -35 4 0 7 -9 7 -20 0 -20 4 -21 38
-14 20 4 58 10 84 14 47 7 75 20 47 22 -28 2 37 17 79 18 73 2 125 39 95 69
-7 7 -13 22 -13 33 0 10 -7 19 -15 19 -8 0 -15 5 -15 10 0 6 4 10 8 10 11 0
13 48 2 55 -21 13 -8 21 53 34 34 7 73 18 86 24 13 7 32 11 42 9 9 -2 20 2 24
8 8 13 48 13 62 -1 12 -12 59 -8 133 11 25 6 59 14 77 17 43 7 51 32 18 60
-24 21 -36 23 -137 23 -85 0 -126 5 -172 20 -111 37 -122 40 -154 40 -17 0
-42 5 -56 11 -21 10 -30 9 -52 -6 -29 -19 -102 -17 -143 4 -12 6 -30 16 -41
21 -31 15 -101 11 -140 -9z m370 -100 c0 -13 -37 -24 -52 -15 -8 5 -6 10 8 15
27 11 44 11 44 0z m-340 -167 c0 -8 -4 -12 -10 -9 -5 3 -10 10 -10 16 0 5 5 9
10 9 6 0 10 -7 10 -16z"/>
<path d="M3852 4500 c0 -14 2 -19 5 -12 2 6 2 18 0 25 -3 6 -5 1 -5 -13z"/>
<path d="M4140 3850 c0 -5 11 -10 25 -10 26 0 34 -15 13 -23 -8 -3 -6 -6 5 -6
9 -1 17 -7 17 -14 0 -14 40 -37 65 -37 8 0 15 -4 15 -10 0 -5 9 -10 20 -10 11
0 20 -4 20 -9 0 -11 49 -20 148 -27 67 -6 89 -16 60 -27 -9 -4 -10 -8 -2 -14
16 -12 34 -49 34 -71 0 -10 11 -32 25 -48 14 -16 25 -33 26 -39 4 -87 13 -141
22 -147 12 -7 28 -149 18 -158 -14 -12 -10 -34 10 -51 14 -12 20 -26 16 -39
-3 -11 -1 -18 3 -15 5 3 11 -13 15 -35 4 -22 11 -40 16 -40 5 0 9 -9 9 -20 0
-13 7 -20 20 -20 11 0 20 6 20 13 0 6 11 24 24 40 19 22 32 27 70 27 40 0 46
3 46 21 0 14 -5 19 -14 16 -13 -5 -26 12 -26 34 0 5 11 9 25 9 14 0 25 5 25
10 0 6 7 10 15 10 8 0 15 -4 15 -10 0 -5 5 -10 10 -10 6 0 10 9 10 20 0 17 -7
20 -41 20 -24 0 -38 4 -34 10 3 6 21 10 38 10 l32 0 -25 13 c-30 15 -43 87
-15 87 21 0 45 24 45 44 0 11 10 16 34 16 29 0 33 3 29 20 -3 11 0 27 7 35 9
10 12 48 11 116 -1 56 1 99 6 96 4 -3 8 8 8 24 0 16 -3 29 -7 29 -5 0 -8 7 -8
15 0 14 -12 19 -32 16 -5 0 -8 6 -8 14 0 8 5 15 10 15 14 0 12 59 -3 74 -13
13 -57 12 -67 -3 -3 -4 -26 -14 -52 -22 -27 -7 -48 -16 -48 -20 0 -7 -30 -11
-167 -25 -63 -6 -153 11 -153 29 0 4 -4 6 -9 2 -5 -3 -16 2 -24 10 -10 9 -34
15 -65 15 -27 0 -52 3 -56 7 -13 14 -82 33 -118 33 -20 0 -40 5 -43 10 -3 6
-19 10 -36 10 -16 0 -29 -4 -29 -10z m180 -60 c0 -5 -5 -10 -11 -10 -5 0 -7 5
-4 10 3 6 8 10 11 10 2 0 4 -4 4 -10z m606 -404 c21 -21 18 -26 -16 -26 -23 0
-30 4 -30 20 0 23 25 27 46 6z m-126 -56 c0 -23 -4 -30 -20 -30 -13 0 -20 7
-20 18 0 10 -5 23 -12 30 -9 9 -5 12 20 12 29 0 32 -3 32 -30z"/>
<path d="M4804 3036 c-3 -8 -4 -25 -2 -38 4 -22 5 -22 12 -3 4 11 12 28 17 38
7 13 5 17 -6 17 -9 0 -18 -6 -21 -14z"/>
<path d="M4600 2766 c0 -8 5 -18 10 -21 6 -3 10 3 10 14 0 12 -4 21 -10 21 -5
0 -10 -6 -10 -14z"/>
<path d="M4627 2653 c-11 -10 -8 -93 3 -93 6 0 10 23 10 50 0 51 -1 55 -13 43z"/>
<path d="M4433 2607 c-18 -6 -33 -15 -33 -19 0 -4 -13 -8 -30 -8 -16 0 -30 -4
-30 -9 0 -5 -12 -14 -27 -20 -44 -18 -74 -71 -75 -131 0 -49 2 -54 47 -96 26
-24 55 -44 65 -44 9 0 20 -3 24 -7 14 -14 121 -32 194 -32 85 -1 149 16 155
41 3 10 2 18 -2 18 -4 0 -7 10 -7 22 1 13 -8 27 -22 34 -13 6 -23 14 -23 18 2
20 0 26 -13 26 -7 0 -16 9 -19 20 -3 12 -11 18 -19 15 -21 -8 -41 21 -36 50 4
17 1 25 -8 25 -8 0 -14 -6 -14 -14 0 -8 -7 -13 -16 -12 -18 3 -44 56 -44 90 0
21 -18 48 -29 45 -4 -1 -21 -7 -38 -12z"/>
<path d="M4946 2395 c-16 -12 -17 -15 -4 -15 9 0 18 7 22 15 7 18 6 18 -18 0z"/>
<path d="M2560 1199 c0 -11 4 -18 10 -14 5 3 7 12 3 20 -7 21 -13 19 -13 -6z"/>
<path d="M2420 1092 c0 -16 3 -32 7 -36 4 -3 8 -17 10 -29 4 -23 28 -47 49
-47 15 0 34 52 34 91 0 16 -4 29 -10 29 -5 0 -10 -9 -10 -21 0 -11 -4 -17 -10
-14 -5 3 -10 -1 -10 -9 0 -9 -4 -16 -10 -16 -5 0 -10 18 -10 40 0 33 -3 40
-20 40 -15 0 -20 -7 -20 -28z"/>
<path d="M2415 950 c3 -5 10 -10 16 -10 5 0 9 5 9 10 0 6 -7 10 -16 10 -8 0
-12 -4 -9 -10z"/>
<path d="M2480 950 c0 -5 5 -10 10 -10 6 0 10 5 10 10 0 6 -4 10 -10 10 -5 0
-10 -4 -10 -10z"/>
<path d="M2343 860 c0 -25 2 -35 4 -22 2 12 2 32 0 45 -2 12 -4 2 -4 -23z"/>
<path d="M2447 874 c-3 -3 -3 -13 0 -21 5 -12 7 -12 14 -1 15 23 4 40 -14 22z"/>
<path d="M2400 784 c0 -8 5 -12 10 -9 6 3 10 10 10 16 0 5 -4 9 -10 9 -5 0
-10 -7 -10 -16z"/>
<path d="M2433 743 c-15 -6 -18 -63 -3 -63 6 0 10 6 11 13 0 6 2 22 5 35 2 12
3 22 1 21 -1 0 -8 -3 -14 -6z"/>
<path d="M2266 631 c-7 -11 -4 -112 3 -106 4 5 8 115 4 115 -1 0 -4 -4 -7 -9z"/>
<path d="M2400 620 c0 -11 5 -20 10 -20 6 0 10 9 10 20 0 11 -4 20 -10 20 -5
0 -10 -9 -10 -20z"/>
<path d="M2301 544 c0 -11 3 -14 6 -6 3 7 2 16 -1 19 -3 4 -6 -2 -5 -13z"/>
<path d="M2206 511 c-17 -17 -38 -31 -48 -31 -16 0 -18 -9 -18 -80 l0 -80 -30
0 c-27 0 -30 3 -30 32 l0 32 -30 -29 c-29 -27 -30 -33 -30 -112 0 -76 -2 -83
-20 -83 -18 0 -20 -7 -20 -80 l0 -80 134 0 134 0 7 30 c4 16 10 30 14 30 8 0
31 67 31 89 0 6 -12 11 -26 11 -24 0 -25 -2 -19 -44 4 -24 3 -46 -2 -49 -14
-9 -15 72 -2 111 10 31 12 32 29 17 17 -16 19 -15 29 4 6 11 11 33 11 50 0 17
5 31 10 31 6 0 10 9 10 20 0 13 -7 20 -20 20 -14 0 -20 -7 -20 -22 -1 -23 -21
-58 -34 -58 -3 0 -6 15 -6 33 0 24 3 28 10 17 8 -13 10 -12 10 3 0 11 -9 21
-20 24 -22 6 -28 33 -7 33 8 0 7 4 -3 10 -10 6 -11 10 -2 10 8 0 12 18 12 55
0 30 -4 55 -9 55 -6 0 -11 14 -13 31 l-3 31 -29 -31z"/>
<path d="M2371 514 c0 -11 3 -14 6 -6 3 7 2 16 -1 19 -3 4 -6 -2 -5 -13z"/>
<path d="M3660 500 c0 -11 5 -20 10 -20 6 0 10 9 10 20 0 11 -4 20 -10 20 -5
0 -10 -9 -10 -20z"/>
<path d="M2355 474 c-12 -13 -19 -14 -28 -5 -17 17 -27 13 -27 -8 0 -11 -4
-23 -10 -26 -11 -7 -14 -115 -2 -115 12 0 27 14 28 28 2 28 5 32 25 32 13 0
20 6 18 18 -3 31 1 43 11 37 6 -4 10 7 10 24 0 36 -3 37 -25 15z"/>
<path d="M1885 190 l-29 -30 32 0 c29 0 32 3 32 30 0 17 -1 30 -3 30 -2 0 -16
-13 -32 -30z"/>
</g>
</svg>
